<?xml version="1.0" encoding="iso-8859-1"?>
<!-- Generator: Adobe Illustrator 19.0.0, SVG Export Plug-In . SVG Version: 6.00 Build 0)  -->
<svg version="1.1" id="Capa_1" xmlns="http://www.w3.org/2000/svg" xmlns:xlink="http://www.w3.org/1999/xlink" x="0px" y="0px"
	 viewBox="0 0 512 512" style="enable-background:new 0 0 512 512;" xml:space="preserve">
<path style="fill:#FFC107;" d="M501.333,373.333H288c-5.891,0-10.667,4.776-10.667,10.667v42.667
	c0,29.312,60.821,42.667,117.333,42.667S512,455.979,512,426.667V384C512,378.109,507.224,373.333,501.333,373.333z"/>
<path style="fill:#FFD54F;" d="M501.333,330.667H288c-5.891,0-10.667,4.776-10.667,10.667V384
	c0,29.312,60.821,42.667,117.333,42.667S512,413.312,512,384v-42.667C512,335.442,507.224,330.667,501.333,330.667z"/>
<path style="fill:#FFC107;" d="M501.333,288H288c-5.891,0-10.667,4.776-10.667,10.667v42.667c0,29.312,60.821,42.667,117.333,42.667
	S512,370.645,512,341.333v-42.667C512,292.776,507.224,288,501.333,288z"/>
<g>
	
		<ellipse style="fill:none;stroke:#000000;stroke-linecap:round;stroke-linejoin:round;" cx="117.333" cy="85.333" rx="106.667" ry="32"/>
	<path style="fill:none;stroke:#000000;stroke-linecap:round;stroke-linejoin:round;" d="M224,85.333V128
		c0,17.664-47.765,32-106.667,32S10.667,145.664,10.667,128V85.333"/>
</g>
<path style="fill:#FFD54F;" d="M394.667,256c-56.512,0-117.333,13.355-117.333,42.667c0,29.312,60.821,42.667,117.333,42.667
	S512,327.979,512,298.667C512,269.355,451.179,256,394.667,256z"/>
<path style="fill:#FFC107;" d="M224,330.667H10.667C4.776,330.667,0,335.442,0,341.333V384c0,29.312,60.821,42.667,117.333,42.667
	S234.667,413.312,234.667,384v-42.667C234.667,335.442,229.891,330.667,224,330.667z"/>
<path style="fill:#FFD54F;" d="M224,288H10.667C4.776,288,0,292.776,0,298.667v42.667C0,370.645,60.821,384,117.333,384
	s117.333-13.355,117.333-42.667v-42.667C234.667,292.776,229.891,288,224,288z"/>
<path style="fill:#FFC107;" d="M224,245.333H10.667C4.776,245.333,0,250.109,0,256v42.667c0,29.312,60.821,42.667,117.333,42.667
	s117.333-13.355,117.333-42.667V256C234.667,250.109,229.891,245.333,224,245.333z"/>
<path style="fill:#FFD54F;" d="M224,202.667H10.667C4.776,202.667,0,207.442,0,213.333V256c0,29.312,60.821,42.667,117.333,42.667
	S234.667,285.312,234.667,256v-42.667C234.667,207.442,229.891,202.667,224,202.667z"/>
<path style="fill:#FFC107;" d="M224,160H10.667C4.776,160,0,164.776,0,170.667v42.667C0,242.645,60.821,256,117.333,256
	s117.333-13.355,117.333-42.667v-42.667C234.667,164.776,229.891,160,224,160z"/>
<path style="fill:#FFD54F;" d="M224,117.333H10.667C4.776,117.333,0,122.109,0,128v42.667c0,29.312,60.821,42.667,117.333,42.667
	s117.333-13.355,117.333-42.667V128C234.667,122.109,229.891,117.333,224,117.333z"/>
<path style="fill:#FFC107;" d="M224,74.667H10.667C4.776,74.667,0,79.442,0,85.333V128c0,29.312,60.821,42.667,117.333,42.667
	S234.667,157.312,234.667,128V85.333C234.667,79.442,229.891,74.667,224,74.667z"/>
<path style="fill:#FFD54F;" d="M117.333,42.667C60.821,42.667,0,56.021,0,85.333S60.821,128,117.333,128
	s117.333-13.355,117.333-42.667S173.845,42.667,117.333,42.667z"/>
<g>
</g>
<g>
</g>
<g>
</g>
<g>
</g>
<g>
</g>
<g>
</g>
<g>
</g>
<g>
</g>
<g>
</g>
<g>
</g>
<g>
</g>
<g>
</g>
<g>
</g>
<g>
</g>
<g>
</g>
</svg>
